<svg xmlns="http://www.w3.org/2000/svg" width="17" height="18" viewBox="0 0 17 18" fill="none">
  <path
    d="M8.49996 0.854004C4.00842 0.854004 0.354126 4.5083 0.354126 8.99984C0.354126 13.4914 4.00842 17.1457 8.49996 17.1457C12.9915 17.1457 16.6458 13.4914 16.6458 8.99984C16.6458 4.5083 12.9915 0.854004 8.49996 0.854004ZM10.6009 12.3814C10.625 12.4296 10.6391 12.4841 10.6391 12.5415C10.6391 12.737 10.4805 12.8957 10.285 12.8957H6.72913C6.62358 12.8957 6.52371 12.8489 6.45642 12.7675C6.38913 12.686 6.3615 12.579 6.38133 12.4756L6.94092 9.50134C6.36079 9.03242 6.02079 8.33117 6.02079 7.58317C6.02079 6.21609 7.13288 5.104 8.49996 5.104C9.86704 5.104 10.9791 6.21609 10.9791 7.58317C10.9791 8.33117 10.6391 9.03242 10.059 9.50204L10.6009 12.3814Z"
    fill="#0F1219" />
</svg>