<svg xmlns="http://www.w3.org/2000/svg" width="13" height="18" viewBox="0 0 13 18" fill="none">
  <path
    d="M9.64322 15.8156C9.56672 15.8156 9.4888 15.7909 9.42363 15.7391C7.28801 14.0491 4.95617 12.0601 4.31867 9.84368C4.0488 8.90514 4.5928 7.92268 5.53134 7.6521C6.46988 7.38364 7.45305 7.92693 7.72292 8.86477C8.09976 10.1745 10.6583 12.1996 11.6216 12.9618C11.7753 13.0829 11.8008 13.306 11.6797 13.459C11.5585 13.6127 11.3368 13.6389 11.1824 13.5171C9.3528 12.0693 7.42967 10.4068 7.04222 9.06027C6.88001 8.49714 6.28926 8.17202 5.72684 8.33281C5.16442 8.49502 4.83788 9.08506 4.99938 9.64748C5.5788 11.662 7.81359 13.561 9.8628 15.1831C10.0165 15.3042 10.042 15.5274 9.92088 15.6804C9.85147 15.7696 9.74805 15.8156 9.64322 15.8156Z"
    fill="#0F1219" />
  <path
    d="M0.63957 14.0227C0.488695 14.0227 0.348445 13.9256 0.301695 13.774C0.242903 13.587 0.347028 13.3887 0.534028 13.3306C0.929987 13.2067 2.17665 12.6464 1.59582 10.6269C1.25653 9.44469 1.39678 8.20086 1.99249 7.12561C2.5882 6.04894 3.56711 5.26907 4.75003 4.92907C7.13286 4.25049 9.65524 5.6034 10.4061 7.95224C10.5824 8.11799 11.7916 9.11674 12.6189 9.78824C12.7705 9.91149 12.7939 10.1346 12.6706 10.2862C12.5481 10.4385 12.3242 10.4619 12.1727 10.3379C9.89536 8.48986 9.81957 8.36165 9.78274 8.30074C9.76786 8.27594 9.75653 8.24974 9.74803 8.22282C9.1339 6.20194 6.97845 5.03036 4.94482 5.61049C3.94465 5.89736 3.1159 6.55753 2.61157 7.46774C2.10794 8.37794 1.98894 9.43053 2.27582 10.4307C2.87932 12.5281 1.82815 13.6678 0.744403 14.0064C0.710403 14.017 0.674987 14.0227 0.63957 14.0227Z"
    fill="#0F1219" />
  <path
    d="M1.7708 15.3748C1.61992 15.3748 1.48038 15.2777 1.43292 15.1262C1.37413 14.9399 1.47825 14.7408 1.66525 14.6827C3.13292 14.2237 3.667 13.4701 2.95159 10.2132C2.56413 8.44657 3.5048 6.76074 5.13963 6.2904C6.82759 5.80732 8.59842 6.78553 9.08363 8.47278C9.18209 8.8149 9.63188 9.47436 12.2605 11.5554C12.4142 11.6766 12.4397 11.8997 12.3186 12.0534C12.1975 12.2064 11.9758 12.234 11.8213 12.1115C8.91929 9.81507 8.54105 9.15136 8.40292 8.66969C8.02538 7.35786 6.65121 6.59569 5.33442 6.97253C4.06367 7.33803 3.33621 8.66615 3.64292 10.0623C4.3718 13.3829 3.92625 14.7196 1.87563 15.3599C1.84163 15.3698 1.8055 15.3748 1.7708 15.3748Z"
    fill="#0F1219" />
  <path
    d="M10.6249 14.6665C10.5343 14.6665 10.4436 14.6318 10.3742 14.5631C10.2446 14.4335 9.95982 14.2174 9.63044 13.9674C8.36181 13.0048 6.23823 11.394 5.68006 9.45177C5.62623 9.26336 5.73461 9.06786 5.92231 9.01332C6.11286 8.95948 6.30623 9.06786 6.36077 9.25557C6.85377 10.9711 8.85977 12.4926 10.0583 13.4021C10.4231 13.6791 10.7114 13.898 10.875 14.0616C11.0131 14.1997 11.0131 14.4243 10.875 14.5624C10.8063 14.6318 10.7156 14.6665 10.6249 14.6665Z"
    fill="#0F1219" />
  <path
    d="M5.31249 17.4998C5.3047 17.4998 5.29762 17.4998 5.28982 17.4991C5.09503 17.4871 4.94628 17.3192 4.95832 17.1237C4.98453 16.7136 5.17366 14.6665 6.37499 14.6665C7.25828 14.6665 7.79024 15.389 8.14228 15.8671C8.23649 15.9946 8.31866 16.1094 8.39587 16.1873C8.53399 16.3254 8.53399 16.55 8.39587 16.6881C8.25774 16.8262 8.0332 16.8262 7.89507 16.6881C7.79732 16.5903 7.69037 16.4487 7.57137 16.2879C7.27245 15.8806 6.90057 15.3748 6.37499 15.3748C5.99107 15.3748 5.71128 16.4352 5.66595 17.1676C5.65391 17.3553 5.49807 17.4998 5.31249 17.4998Z"
    fill="#0F1219" />
  <path
    d="M3.18748 16.7915C3.03802 16.7915 2.89918 16.6966 2.85031 16.5464C2.7901 16.3601 2.8921 16.1611 3.07768 16.1002C3.97302 15.809 4.56873 13.9504 4.26627 13.0033C4.20677 12.817 4.30948 12.618 4.49577 12.5585C4.68206 12.4962 4.8811 12.6017 4.9406 12.788C5.31673 13.9645 4.65939 16.3318 3.29585 16.7745C3.26043 16.7858 3.2236 16.7915 3.18748 16.7915Z"
    fill="#0F1219" />
  <path
    d="M0.354167 9.7085C0.158667 9.7085 0 9.54983 0 9.35433C0 6.03437 2.70088 3.3335 6.02083 3.3335C9.28908 3.3335 10.4585 5.2212 11.3121 6.59962C11.7151 7.24916 12.0629 7.81087 12.5056 7.95466C12.6919 8.01487 12.7939 8.21462 12.733 8.40091C12.6735 8.5865 12.4745 8.68991 12.2867 8.62829C11.5968 8.40445 11.186 7.74075 10.71 6.9722C9.90108 5.66675 8.89454 4.04183 6.02083 4.04183C3.09117 4.04183 0.708333 6.42466 0.708333 9.35433C0.708333 9.54983 0.549667 9.7085 0.354167 9.7085Z"
    fill="#0F1219" />
  <path
    d="M0.708333 12.1873C0.578 12.1873 0.453333 12.1158 0.391 11.9918C0.325833 11.8608 0 11.1872 0 10.7707C0 10.5752 0.158667 10.4165 0.354167 10.4165C0.549667 10.4165 0.708333 10.5752 0.708333 10.7707C0.708333 10.9555 0.897458 11.4195 1.02496 11.6745C1.11279 11.8495 1.04125 12.062 0.866292 12.1498C0.816 12.1753 0.762167 12.1873 0.708333 12.1873Z"
    fill="#0F1219" />
  <path
    d="M10.9792 4.74984C10.8595 4.74984 10.7426 4.68963 10.676 4.57913C10.3268 4.00396 8.38955 2.62484 5.66671 2.62484C2.8348 2.62484 1.31896 4.07196 1.01084 4.57913C0.910254 4.747 0.692087 4.79942 0.52492 4.69813C0.357754 4.59684 0.30392 4.37938 0.40592 4.21221C0.793379 3.5733 2.49409 1.9165 5.66671 1.9165C8.65021 1.9165 10.7958 3.41109 11.2817 4.21221C11.3837 4.37938 11.3298 4.59684 11.1627 4.69884C11.1053 4.73355 11.0423 4.74984 10.9792 4.74984Z"
    fill="#0F1219" />
  <path
    d="M9.5625 1.91667C9.52425 1.91667 9.48529 1.91029 9.44704 1.89754C9.30396 1.84867 9.16796 1.79767 9.03267 1.74808C8.28679 1.47042 7.582 1.20833 5.66667 1.20833C3.96596 1.20833 3.58275 1.40454 3.05433 1.67583C2.924 1.74242 2.78587 1.81325 2.62367 1.8855C2.44587 1.96625 2.2355 1.8855 2.15546 1.70771C2.07542 1.52921 2.15546 1.31954 2.33325 1.2395C2.48271 1.17221 2.6095 1.10704 2.72992 1.04542C3.32492 0.740833 3.79454 0.5 5.66667 0.5C7.7095 0.5 8.50779 0.796792 9.27987 1.08367C9.41021 1.13183 9.54054 1.18071 9.67796 1.22817C9.86283 1.29192 9.96129 1.49308 9.89754 1.67796C9.84654 1.82458 9.70912 1.91667 9.5625 1.91667Z"
    fill="#0F1219" />
  <path
    d="M12.3958 6.87518C12.2456 6.87518 12.1068 6.77955 12.0586 6.62868C11.8964 6.12364 11.3914 5.29772 11.3857 5.28993C11.283 5.12347 11.3354 4.9053 11.5019 4.80259C11.6684 4.69918 11.8865 4.75159 11.9892 4.91876C12.0119 4.95559 12.5453 5.82543 12.733 6.41334C12.7925 6.59964 12.6898 6.79868 12.5035 6.85818C12.4674 6.86951 12.4312 6.87518 12.3958 6.87518Z"
    fill="#0F1219" />
</svg>