<svg xmlns="http://www.w3.org/2000/svg" width="24" height="24" viewBox="0 0 24 24" fill="none">
  <path
    d="M17.849 6.08884L16.926 7.00337L16.0029 6.08884C15.924 6.01057 15.8303 5.94848 15.7272 5.90611C15.6241 5.86374 15.5135 5.84194 15.4019 5.84194C15.2903 5.84194 15.1797 5.86374 15.0766 5.90611C14.9735 5.94848 14.8798 6.01057 14.801 6.08884L13.7393 7.14063C12.9353 6.84027 12.0834 6.68567 11.2241 6.68421C7.24105 6.68421 4 9.89516 4 13.8421C4 17.7891 7.24105 21 11.2241 21C15.2072 21 18.4492 17.7891 18.4492 13.8421C18.4487 13.0825 18.325 12.3279 18.0828 11.6072L19.2269 10.4737C19.3059 10.3955 19.3686 10.3027 19.4113 10.2006C19.4541 10.0984 19.4761 9.98891 19.4761 9.87832C19.4761 9.76772 19.4541 9.65821 19.4113 9.55605C19.3686 9.45389 19.3059 9.36108 19.2269 9.28295L18.1279 8.19411L19.0544 7.27621C19.249 7.08337 19.7726 6.68421 20.15 6.68421H21V5H20.15C18.96 5 17.9536 5.98274 17.849 6.08884ZM11.2241 10.8947C10.4294 10.8947 9.6831 11.2013 9.1204 11.7579C8.84355 12.0311 8.62409 12.356 8.47469 12.7137C8.3253 13.0714 8.24893 13.455 8.25 13.8421H6.55C6.55 12.6059 7.03535 11.4429 7.91765 10.568C8.35077 10.1363 8.86604 9.79405 9.43361 9.56103C10.0012 9.32802 10.6098 9.20888 11.2241 9.21053V10.8947Z"
    fill="#0F1219" />
</svg>