<svg xmlns="http://www.w3.org/2000/svg" width="20" height="20" viewBox="0 0 20 20" fill="none">
  <path
    d="M8.4001 15.1667C8.4001 13.878 7.32558 12.8333 6.0001 12.8333C4.67461 12.8333 3.6001 13.878 3.6001 15.1667C3.6001 16.4553 4.67461 17.5 6.0001 17.5C7.32558 17.5 8.4001 16.4553 8.4001 15.1667Z"
    stroke="#0F1219" stroke-width="1.5" />
  <path
    d="M16.4 15.1667C16.4 13.878 15.3255 12.8333 14 12.8333C12.6745 12.8333 11.6 13.878 11.6 15.1667C11.6 16.4553 12.6745 17.5 14 17.5C15.3255 17.5 16.4 16.4553 16.4 15.1667Z"
    stroke="#0F1219" stroke-width="1.5" />
  <path d="M2 10.5H18" stroke="#0F1219" stroke-width="1.5" stroke-linecap="round" />
  <path
    d="M12 13.8766C11.57 13.2479 10.8348 12.8335 10 12.8335C9.16521 12.8335 8.42997 13.2479 8 13.8766"
    stroke="#0F1219" stroke-width="1.5" stroke-linecap="round" />
  <path
    d="M2.80005 10.5L4.12938 5.60219C4.20687 5.31667 4.24562 5.1739 4.28305 5.07269C4.82841 3.59776 6.61061 3.03416 7.89831 3.9294C7.98668 3.99083 8.09981 4.08557 8.32607 4.27503C8.45599 4.38382 8.52096 4.43822 8.58117 4.48257C9.42578 5.10469 10.5743 5.10469 11.4189 4.48257C11.4791 4.43822 11.5441 4.38382 11.674 4.27503C11.9003 4.08557 12.0134 3.99083 12.1018 3.9294C13.3895 3.03416 15.1717 3.59776 15.717 5.07269C15.7545 5.1739 15.7932 5.31667 15.8707 5.60219L17.2 10.5H2.80005Z"
    stroke="#0F1219" stroke-width="1.5" stroke-linecap="round" />
</svg>