<svg xmlns="http://www.w3.org/2000/svg" width="18" height="18" viewBox="0 0 18 18" fill="none">
  <path
    d="M1.5 4.5C1.5 3.79289 1.5 3.43934 1.71967 3.21967C1.93934 3 2.29289 3 3 3C3.70711 3 4.06066 3 4.28033 3.21967C4.5 3.43934 4.5 3.79289 4.5 4.5V6C4.5 6.70711 4.5 7.06066 4.28033 7.28033C4.06066 7.5 3.70711 7.5 3 7.5C2.29289 7.5 1.93934 7.5 1.71967 7.28033C1.5 7.06066 1.5 6.70711 1.5 6V4.5Z"
    stroke="#0F1219" stroke-width="1.5" />
  <path
    d="M4.875 12C4.875 11.2929 4.875 10.9393 5.09467 10.7197C5.31434 10.5 5.66789 10.5 6.375 10.5C7.08211 10.5 7.43566 10.5 7.65533 10.7197C7.875 10.9393 7.875 11.2929 7.875 12V13.5C7.875 14.2071 7.875 14.5607 7.65533 14.7803C7.43566 15 7.08211 15 6.375 15C5.66789 15 5.31434 15 5.09467 14.7803C4.875 14.5607 4.875 14.2071 4.875 13.5V12Z"
    stroke="#0F1219" stroke-width="1.5" />
  <path
    d="M10.125 4.5C10.125 3.79289 10.125 3.43934 10.3447 3.21967C10.5643 3 10.9179 3 11.625 3C12.3321 3 12.6857 3 12.9053 3.21967C13.125 3.43934 13.125 3.79289 13.125 4.5V6C13.125 6.70711 13.125 7.06066 12.9053 7.28033C12.6857 7.5 12.3321 7.5 11.625 7.5C10.9179 7.5 10.5643 7.5 10.3447 7.28033C10.125 7.06066 10.125 6.70711 10.125 6V4.5Z"
    stroke="#0F1219" stroke-width="1.5" />
  <path
    d="M10.125 12C10.125 11.2929 10.125 10.9393 10.3447 10.7197C10.5643 10.5 10.9179 10.5 11.625 10.5C12.3321 10.5 12.6857 10.5 12.9053 10.7197C13.125 10.9393 13.125 11.2929 13.125 12V13.5C13.125 14.2071 13.125 14.5607 12.9053 14.7803C12.6857 15 12.3321 15 11.625 15C10.9179 15 10.5643 15 10.3447 14.7803C10.125 14.5607 10.125 14.2071 10.125 13.5V12Z"
    stroke="#0F1219" stroke-width="1.5" />
  <path d="M6.75 3.75L7.875 3V7.5" stroke="#0F1219" stroke-width="1.5" stroke-linecap="round"
    stroke-linejoin="round" />
  <path d="M1.5 11.25L2.625 10.5V15" stroke="#0F1219" stroke-width="1.5" stroke-linecap="round"
    stroke-linejoin="round" />
  <path d="M15.375 3.75L16.5 3V7.5" stroke="#0F1219" stroke-width="1.5" stroke-linecap="round"
    stroke-linejoin="round" />
  <path d="M15.375 11.25L16.5 10.5V15" stroke="#0F1219" stroke-width="1.5" stroke-linecap="round"
    stroke-linejoin="round" />
</svg>