<svg xmlns="http://www.w3.org/2000/svg" width="16" height="16" viewBox="0 0 16 16" fill="none">
  <g clip-path="url(#clip0_2022_1588)">
    <path
      d="M8 0C3.58867 0 0 3.58867 0 8C0 12.4113 3.58867 16 8 16C12.4113 16 16 12.4113 16 8C16 3.58867 12.4113 0 8 0ZM5.96733 11.8413C5.904 11.9413 5.796 11.996 5.68533 11.996C5.62467 11.996 5.56267 11.9793 5.50733 11.944C4.146 11.0833 3.33333 9.60867 3.33333 8C3.33333 5.42667 5.42667 3.33333 8 3.33333C8.06933 3.33333 8.13733 3.33933 8.20533 3.34333L7.43067 2.56867C7.30067 2.43867 7.30067 2.22733 7.43067 2.09733C7.56067 1.96733 7.772 1.96733 7.902 2.09733L9.23533 3.43067C9.36533 3.56067 9.36533 3.772 9.23533 3.902L7.902 5.23533C7.83733 5.30067 7.752 5.33333 7.66667 5.33333C7.58133 5.33333 7.496 5.30067 7.43067 5.236C7.30067 5.106 7.30067 4.89467 7.43067 4.76467L8.18533 4.01C8.124 4.00533 8.06267 4 8 4C5.794 4 4 5.794 4 8C4 9.37867 4.69667 10.6427 5.864 11.3813C6.01933 11.48 6.066 11.686 5.96733 11.8413ZM8 12.6667C7.93067 12.6667 7.86267 12.6607 7.79467 12.6567L8.56933 13.4313C8.69933 13.5613 8.69933 13.7727 8.56933 13.9027C8.504 13.9673 8.41867 14 8.33333 14C8.248 14 8.16267 13.9673 8.09733 13.9027L6.764 12.5693C6.634 12.4393 6.634 12.228 6.764 12.098L8.09733 10.7647C8.22733 10.6347 8.43867 10.6347 8.56867 10.7647C8.69867 10.8947 8.69867 11.106 8.56867 11.236L7.814 11.9907C7.876 11.9947 7.93733 12 8 12C10.206 12 12 10.206 12 8C12 6.62467 11.306 5.36267 10.144 4.624C9.98867 4.52533 9.94267 4.31933 10.042 4.164C10.1407 4.00933 10.346 3.96333 10.502 4.062C11.8573 4.92333 12.6667 6.396 12.6667 8C12.6667 10.5733 10.5733 12.6667 8 12.6667Z"
      fill="#0F1219" />
  </g>
  <defs>
    <clipPath id="clip0_2022_1588">
      <rect width="16" height="16" fill="white" />
    </clipPath>
  </defs>
</svg>