<svg xmlns="http://www.w3.org/2000/svg" width="16" height="16" viewBox="0 0 16 16" fill="none">
  <path d="M4.33337 7.66683H7.66671V4.3335H4.86671C4.53337 5.3335 4.40004 6.46683 4.33337 7.66683Z"
    fill="#0F1219" />
  <path
    d="M3.66671 8.3335H0.333374C0.400041 9.5335 0.733374 10.6668 1.26671 11.6668H4.13337C3.86671 10.6668 3.73337 9.5335 3.66671 8.3335Z"
    fill="#0F1219" />
  <path d="M5.06665 3.66673H7.66665V0.733398C6.59998 0.933398 5.66665 2.06673 5.06665 3.66673Z"
    fill="#0F1219" />
  <path d="M8.33337 0.733398V3.66673H10.9334C10.3334 2.06673 9.40004 0.933398 8.33337 0.733398Z"
    fill="#0F1219" />
  <path d="M11.1334 4.3335H8.33337V7.66683H11.6667C11.6 6.46683 11.4667 5.3335 11.1334 4.3335Z"
    fill="#0F1219" />
  <path
    d="M12.3334 8.3335C12.3334 9.5335 12.1334 10.6668 11.8667 11.6668H14.7334C15.2667 10.6668 15.6 9.5335 15.6667 8.3335H12.3334Z"
    fill="#0F1219" />
  <path d="M4.86671 11.6668H7.66671V8.3335H4.33337C4.40004 9.5335 4.53337 10.6668 4.86671 11.6668Z"
    fill="#0F1219" />
  <path
    d="M4.13337 4.3335H1.26671C0.733374 5.3335 0.400041 6.46683 0.333374 7.66683H3.66671C3.73337 6.46683 3.86671 5.3335 4.13337 4.3335Z"
    fill="#0F1219" />
  <path d="M7.66665 15.2668V12.3335H5.06665C5.66665 13.9335 6.59998 15.0668 7.66665 15.2668Z"
    fill="#0F1219" />
  <path
    d="M4.33341 12.3335H1.66675C2.80008 13.9335 4.46675 15.1335 6.46675 15.5335C5.60008 14.9335 4.86675 13.8002 4.33341 12.3335Z"
    fill="#0F1219" />
  <path
    d="M9.46667 15.5335C11.4667 15.1335 13.2 14.0002 14.2667 12.3335H11.6C11.1333 13.8002 10.4 14.9335 9.46667 15.5335Z"
    fill="#0F1219" />
  <path
    d="M11.6667 3.6668H14.3333C13.2 2.0668 11.5333 0.866797 9.53333 0.466797C10.4 1.0668 11.1333 2.20013 11.6667 3.6668Z"
    fill="#0F1219" />
  <path
    d="M6.5334 0.466797C4.5334 0.866797 2.80007 2.00013 1.7334 3.6668H4.40007C4.86673 2.20013 5.60007 1.0668 6.5334 0.466797Z"
    fill="#0F1219" />
  <path d="M8.33337 12.3335V15.2668C9.40004 15.0668 10.3334 13.9335 10.9334 12.3335H8.33337Z"
    fill="#0F1219" />
  <path d="M11.6667 8.3335H8.33337V11.6668H11.1334C11.4667 10.6668 11.6 9.5335 11.6667 8.3335Z"
    fill="#0F1219" />
  <path
    d="M12.3334 7.66683H15.6667C15.6 6.46683 15.2667 5.3335 14.7334 4.3335H11.8667C12.1334 5.3335 12.2667 6.46683 12.3334 7.66683Z"
    fill="#0F1219" />
</svg>