<svg
  width="36"
  height="37"
  viewBox="0 0 36 37"
  fill="inherit"
  xmlns="http://www.w3.org/2000/svg"
>
  <path
    d="M30.4755 6.73336C28.181 5.68054 25.7205 4.90486 23.1478 4.4606C23.101 4.45203 23.0542 4.47346 23.0301 4.51631C22.7136 5.07913 22.3631 5.81338 22.1176 6.3905C19.3506 5.97624 16.5978 5.97624 13.8875 6.3905C13.642 5.80055 13.2787 5.07913 12.9609 4.51631C12.9367 4.47489 12.8899 4.45346 12.8431 4.4606C10.2719 4.90344 7.81134 5.67912 5.5154 6.73336C5.49553 6.74193 5.47849 6.75623 5.46718 6.77479C0.800088 13.7473 -0.478425 20.5485 0.14877 27.2653C0.151608 27.2982 0.170055 27.3296 0.195597 27.3496C3.27481 29.6109 6.25756 30.9837 9.18492 31.8937C9.23177 31.908 9.28141 31.8908 9.31122 31.8522C10.0037 30.9066 10.621 29.9095 11.1502 28.8609C11.1814 28.7995 11.1516 28.7267 11.0878 28.7024C10.1087 28.331 9.1764 27.8781 8.27959 27.3639C8.20866 27.3225 8.20298 27.221 8.26824 27.1724C8.45696 27.031 8.64573 26.8839 8.82593 26.7353C8.85853 26.7082 8.90397 26.7025 8.9423 26.7196C14.8339 29.4095 21.2123 29.4095 27.0344 26.7196C27.0728 26.701 27.1182 26.7068 27.1522 26.7339C27.3325 26.8825 27.5212 27.031 27.7113 27.1724C27.7766 27.221 27.7723 27.3225 27.7014 27.3639C26.8046 27.8881 25.8723 28.331 24.8918 28.701C24.8279 28.7253 24.7995 28.7995 24.8308 28.8609C25.3714 29.908 25.9887 30.9051 26.6683 31.8508C26.6967 31.8908 26.7478 31.908 26.7946 31.8937C29.7362 30.9837 32.7189 29.6109 35.7981 27.3496C35.8251 27.3296 35.8422 27.2996 35.845 27.2667C36.5956 19.5013 34.5877 12.756 30.5223 6.7762C30.5124 6.75623 30.4954 6.74193 30.4755 6.73336ZM12.03 23.1755C10.2562 23.1755 8.7947 21.547 8.7947 19.5471C8.7947 17.5472 10.2279 15.9187 12.03 15.9187C13.8463 15.9187 15.2937 17.5614 15.2653 19.5471C15.2653 21.547 13.8321 23.1755 12.03 23.1755ZM23.9921 23.1755C22.2184 23.1755 20.7568 21.547 20.7568 19.5471C20.7568 17.5472 22.19 15.9187 23.9921 15.9187C25.8084 15.9187 27.2558 17.5614 27.2275 19.5471C27.2275 21.547 25.8084 23.1755 23.9921 23.1755Z"
    fill="inherit"
  />
</svg>