<svg
  width="36"
  height="37"
  viewBox="0 0 36 37"
  fill="inherit"
  xmlns="http://www.w3.org/2000/svg"
>
  <path
    d="M18 3.74141C22.8094 3.74141 23.3789 3.7625 25.2703 3.84687C27.0281 3.92422 27.9773 4.21953 28.6102 4.46563C29.4469 4.78906 30.0516 5.18281 30.6773 5.80859C31.3102 6.44141 31.6969 7.03906 32.0203 7.87578C32.2664 8.50859 32.5617 9.46484 32.6391 11.2156C32.7234 13.1141 32.7445 13.6836 32.7445 18.4859C32.7445 23.2953 32.7234 23.8648 32.6391 25.7563C32.5617 27.5141 32.2664 28.4633 32.0203 29.0961C31.6969 29.9328 31.3031 30.5375 30.6773 31.1633C30.0445 31.7961 29.4469 32.1828 28.6102 32.5062C27.9773 32.7523 27.0211 33.0477 25.2703 33.125C23.3719 33.2094 22.8023 33.2305 18 33.2305C13.1906 33.2305 12.6211 33.2094 10.7297 33.125C8.97188 33.0477 8.02266 32.7523 7.38984 32.5062C6.55313 32.1828 5.94844 31.7891 5.32266 31.1633C4.68984 30.5305 4.30312 29.9328 3.97969 29.0961C3.73359 28.4633 3.43828 27.507 3.36094 25.7563C3.27656 23.8578 3.25547 23.2883 3.25547 18.4859C3.25547 13.6766 3.27656 13.107 3.36094 11.2156C3.43828 9.45781 3.73359 8.50859 3.97969 7.87578C4.30312 7.03906 4.69688 6.43437 5.32266 5.80859C5.95547 5.17578 6.55313 4.78906 7.38984 4.46563C8.02266 4.21953 8.97891 3.92422 10.7297 3.84687C12.6211 3.7625 13.1906 3.74141 18 3.74141ZM18 0.5C13.1133 0.5 12.5016 0.521094 10.582 0.605469C8.66953 0.689844 7.35469 0.999219 6.21563 1.44219C5.02734 1.90625 4.02188 2.51797 3.02344 3.52344C2.01797 4.52187 1.40625 5.52734 0.942188 6.70859C0.499219 7.85469 0.189844 9.1625 0.105469 11.075C0.0210938 13.0016 0 13.6133 0 18.5C0 23.3867 0.0210938 23.9984 0.105469 25.918C0.189844 27.8305 0.499219 29.1453 0.942188 30.2844C1.40625 31.4727 2.01797 32.4781 3.02344 33.4766C4.02188 34.475 5.02734 35.0937 6.20859 35.5508C7.35469 35.9937 8.6625 36.3031 10.575 36.3875C12.4945 36.4719 13.1062 36.493 17.993 36.493C22.8797 36.493 23.4914 36.4719 25.4109 36.3875C27.3234 36.3031 28.6383 35.9937 29.7773 35.5508C30.9586 35.0937 31.9641 34.475 32.9625 33.4766C33.9609 32.4781 34.5797 31.4727 35.0367 30.2914C35.4797 29.1453 35.7891 27.8375 35.8734 25.925C35.9578 24.0055 35.9789 23.3937 35.9789 18.507C35.9789 13.6203 35.9578 13.0086 35.8734 11.0891C35.7891 9.17656 35.4797 7.86172 35.0367 6.72266C34.5938 5.52734 33.982 4.52187 32.9766 3.52344C31.9781 2.525 30.9727 1.90625 29.7914 1.44922C28.6453 1.00625 27.3375 0.696875 25.425 0.6125C23.4984 0.521094 22.8867 0.5 18 0.5Z"
    fill="inherit"
  />
  <path
    d="M18 9.25378C12.8953 9.25378 8.75391 13.3952 8.75391 18.4999C8.75391 23.6046 12.8953 27.746 18 27.746C23.1047 27.746 27.2461 23.6046 27.2461 18.4999C27.2461 13.3952 23.1047 9.25378 18 9.25378ZM18 24.4975C14.6883 24.4975 12.0023 21.8116 12.0023 18.4999C12.0023 15.1882 14.6883 12.5022 18 12.5022C21.3117 12.5022 23.9977 15.1882 23.9977 18.4999C23.9977 21.8116 21.3117 24.4975 18 24.4975Z"
    fill="inherit"
  />
  <path
    d="M29.7703 8.88821C29.7703 10.0835 28.8 11.0468 27.6117 11.0468C26.4164 11.0468 25.4531 10.0765 25.4531 8.88821C25.4531 7.6929 26.4234 6.72961 27.6117 6.72961C28.8 6.72961 29.7703 7.69993 29.7703 8.88821Z"
    fill="inherit"
  />
</svg>