<svg
  width="36"
  height="37"
  viewBox="0 0 36 37"
  fill="inherit"
  xmlns="http://www.w3.org/2000/svg"
>
  <path
    d="M33.3352 0.5H2.65781C1.18828 0.5 0 1.66016 0 3.09453V33.8984C0 35.3328 1.18828 36.5 2.65781 36.5H33.3352C34.8047 36.5 36 35.3328 36 33.9055V3.09453C36 1.66016 34.8047 0.5 33.3352 0.5ZM10.6805 31.1773H5.33672V13.993H10.6805V31.1773ZM8.00859 11.6516C6.29297 11.6516 4.90781 10.2664 4.90781 8.55781C4.90781 6.84922 6.29297 5.46406 8.00859 5.46406C9.71719 5.46406 11.1023 6.84922 11.1023 8.55781C11.1023 10.2594 9.71719 11.6516 8.00859 11.6516ZM30.6773 31.1773H25.3406V22.8242C25.3406 20.8344 25.3055 18.268 22.5633 18.268C19.7859 18.268 19.3641 20.4406 19.3641 22.6836V31.1773H14.0344V13.993H19.1531V16.3414H19.2234C19.9336 14.9914 21.6773 13.5641 24.2719 13.5641C29.6789 13.5641 30.6773 17.1219 30.6773 21.7484V31.1773Z"
    fill="inherit"
  />
</svg>